<svg id="Layer_1" data-name="Layer 1" xmlns="http://www.w3.org/2000/svg" xmlns:xlink="http://www.w3.org/1999/xlink" viewBox="0 0 236.96 135.8"><defs><style>.cls-1,.cls-10,.cls-14,.cls-16,.cls-3,.cls-5{fill:none;}.cls-2{opacity:0.75;}.cls-3{stroke:#4d4d4f;stroke-linecap:square;stroke-width:1.25px;}.cls-3,.cls-5{stroke-miterlimit:10;}.cls-4{fill:#f1f2f2;}.cls-14,.cls-5{stroke:#231f20;}.cls-6{fill:#58595b;}.cls-7{clip-path:url(#clip-path);}.cls-8{fill:#8a7bae;}.cls-9{fill:#71adbf;}.cls-10{stroke:#717375;}.cls-10,.cls-14,.cls-16{stroke-linejoin:round;}.cls-10,.cls-14{stroke-width:1.4px;}.cls-11{fill:#b65d60;}.cls-12{fill:#c1b37f;}.cls-13{fill:#d7d8da;}.cls-14{stroke-dasharray:6 6;}.cls-15{clip-path:url(#clip-path-2);}.cls-16{stroke:#76777a;stroke-width:1.4px;}.cls-17{font-size:30px;fill:#231f20;font-family:Helvetica-Light, Helvetica;}</style><clipPath id="clip-path"><polygon class="cls-1" points="7.9 36 0.63 112.17 236.34 112.17 236.53 110.12 236.53 36 7.9 36"/></clipPath><clipPath id="clip-path-2"><rect class="cls-1" x="5.64" y="36" width="87.95" height="76.16"/></clipPath></defs><title>logo</title><g class="cls-2"><line class="cls-3" x1="0.63" y1="112.16" x2="236.34" y2="112.16"/><line class="cls-3" x1="0.63" y1="112.16" x2="0.63" y2="35.93"/><path class="cls-4" d="M157.67,31.41a6.27,6.27,0,1,0,0-12.54V31.41Z"/><path class="cls-5" d="M157.67,31.41a6.27,6.27,0,1,0,0-12.54V31.41Z"/><path class="cls-6" d="M157.67,18.87a6.27,6.27,0,1,0,0,12.54V18.87Z"/><path class="cls-5" d="M157.67,18.87a6.27,6.27,0,1,0,0,12.54V18.87Z"/><path class="cls-4" d="M174.58,15.16a6.27,6.27,0,1,0,0-12.54V15.16Z"/><path class="cls-5" d="M174.58,15.16a6.27,6.27,0,1,0,0-12.54V15.16Z"/><path class="cls-6" d="M174.58,2.62a6.27,6.27,0,1,0,0,12.54V2.62Z"/><path class="cls-5" d="M174.58,2.62a6.27,6.27,0,1,0,0,12.54V2.62Z"/><path class="cls-4" d="M157.67,15.16a6.27,6.27,0,1,0,0-12.54V15.16Z"/><path class="cls-5" d="M157.67,15.16a6.27,6.27,0,1,0,0-12.54V15.16Z"/><path class="cls-6" d="M157.67,2.62a6.27,6.27,0,1,0,0,12.54V2.62Z"/><path class="cls-5" d="M157.67,2.62a6.27,6.27,0,1,0,0,12.54V2.62Z"/><path class="cls-4" d="M174.58,31.41a6.27,6.27,0,0,0,0-12.54L172,25.14Z"/><path class="cls-5" d="M174.58,31.41a6.27,6.27,0,0,0,0-12.54L172,25.14Z"/><path class="cls-6" d="M174.58,18.87a6.27,6.27,0,1,0,0,12.54V18.87Z"/><path class="cls-5" d="M174.58,18.87a6.27,6.27,0,1,0,0,12.54V18.87Z"/><path class="cls-6" d="M132,8.89a6.27,6.27,0,1,1-6.27-6.27A6.27,6.27,0,0,1,132,8.89"/><circle class="cls-5" cx="125.73" cy="8.89" r="6.27"/><path class="cls-6" d="M115.09,8.89a6.27,6.27,0,1,1-6.27-6.27,6.27,6.27,0,0,1,6.27,6.27"/><circle class="cls-5" cx="108.82" cy="8.89" r="6.27"/><path class="cls-6" d="M115.09,25.14a6.27,6.27,0,1,1-6.27-6.27,6.27,6.27,0,0,1,6.27,6.27"/><circle class="cls-5" cx="108.82" cy="25.14" r="6.27"/><path class="cls-6" d="M132,25.14a6.27,6.27,0,1,1-6.27-6.27A6.27,6.27,0,0,1,132,25.14"/><circle class="cls-5" cx="125.73" cy="25.14" r="6.27"/><path class="cls-4" d="M39.45,8.89a6.27,6.27,0,1,1-6.27-6.27,6.27,6.27,0,0,1,6.27,6.27"/><circle class="cls-5" cx="33.18" cy="8.89" r="6.27"/><path class="cls-4" d="M22.54,8.89a6.27,6.27,0,1,1-6.27-6.27,6.27,6.27,0,0,1,6.27,6.27"/><circle class="cls-5" cx="16.27" cy="8.89" r="6.27"/><path class="cls-4" d="M22.54,25.14a6.27,6.27,0,1,1-6.27-6.27,6.27,6.27,0,0,1,6.27,6.27"/><circle class="cls-5" cx="16.27" cy="25.14" r="6.27"/><path class="cls-4" d="M39.45,25.14a6.27,6.27,0,1,1-6.27-6.27,6.27,6.27,0,0,1,6.27,6.27"/><circle class="cls-5" cx="33.18" cy="25.14" r="6.27"/><path class="cls-6" d="M56.28,25.14a6.27,6.27,0,1,1,6.27,6.27,6.27,6.27,0,0,1-6.27-6.27"/><circle class="cls-5" cx="62.55" cy="25.14" r="6.27"/><path class="cls-4" d="M73.19,25.14a6.27,6.27,0,1,1,6.27,6.27,6.27,6.27,0,0,1-6.27-6.27"/><circle class="cls-5" cx="79.46" cy="25.14" r="6.27"/><path class="cls-4" d="M73.19,8.89a6.27,6.27,0,1,1,6.27,6.27,6.27,6.27,0,0,1-6.27-6.27"/><circle class="cls-5" cx="79.46" cy="8.89" r="6.27"/><path class="cls-6" d="M56.28,8.89a6.27,6.27,0,1,1,6.27,6.27,6.27,6.27,0,0,1-6.27-6.27"/><circle class="cls-5" cx="62.55" cy="8.89" r="6.27"/><path class="cls-4" d="M223.43,15.15a6.27,6.27,0,1,0,0-12.54V15.15Z"/><path class="cls-5" d="M223.43,15.15a6.27,6.27,0,1,0,0-12.54V15.15Z"/><path class="cls-6" d="M223.43,2.62a6.27,6.27,0,0,0,0,12.54V2.62Z"/><path class="cls-5" d="M223.43,2.62a6.27,6.27,0,0,0,0,12.54V2.62Z"/><path class="cls-4" d="M206.72,31.41a6.27,6.27,0,1,0,0-12.54V31.41Z"/><path class="cls-5" d="M206.72,31.41a6.27,6.27,0,1,0,0-12.54V31.41Z"/><path class="cls-6" d="M206.72,18.87a6.27,6.27,0,1,0,0,12.54V18.87Z"/><path class="cls-5" d="M206.72,18.87a6.27,6.27,0,1,0,0,12.54V18.87Z"/><path class="cls-6" d="M212.79,8.89a6.27,6.27,0,1,1-6.27-6.27,6.27,6.27,0,0,1,6.27,6.27"/><circle class="cls-5" cx="206.52" cy="8.89" r="6.27"/><path class="cls-4" d="M229.7,25.14a6.27,6.27,0,1,1-6.27-6.27,6.27,6.27,0,0,1,6.27,6.27"/><circle class="cls-5" cx="223.43" cy="25.14" r="6.27"/><g class="cls-7"><polygon class="cls-8" points="54.05 36 54.01 36.19 54.14 37.26 54.61 38.33 55.4 39.4 56.44 40.46 57.69 41.53 59.07 42.6 60.52 43.66 61.97 44.73 63.37 45.8 64.67 46.87 65.85 47.93 66.88 49 67.75 50.07 68.48 51.14 69.08 52.2 69.55 53.27 69.91 54.34 70.19 55.41 70.4 56.47 70.56 57.54 70.67 58.61 70.76 59.67 70.82 60.74 70.86 61.81 70.89 62.88 70.92 63.94 70.94 65.01 70.95 66.08 70.96 67.14 70.97 68.21 70.98 69.28 70.98 70.35 70.98 71.41 70.99 72.48 70.99 73.55 70.99 74.62 70.99 75.68 70.98 76.75 70.98 77.82 70.97 78.89 70.97 79.95 70.96 81.02 70.95 82.09 70.94 83.16 70.92 84.22 70.89 85.29 70.86 86.36 70.82 87.42 70.76 88.49 70.67 89.56 70.56 90.63 70.4 91.69 70.19 92.76 69.91 93.83 69.55 94.9 69.08 95.96 68.49 97.03 67.76 98.1 66.88 99.17 65.86 100.23 64.68 101.3 63.38 102.37 61.99 103.43 60.54 104.5 59.09 105.57 57.71 106.64 56.47 107.7 55.42 108.77 54.64 109.84 54.17 110.91 54.04 111.97 54.08 112.17 89.12 112.17 89.16 111.97 89.03 110.91 88.56 109.84 87.78 108.77 86.73 107.7 85.49 106.64 84.11 105.57 82.66 104.5 81.21 103.43 79.81 102.37 78.52 101.3 77.35 100.23 76.32 99.17 75.44 98.1 74.72 97.03 74.12 95.96 73.65 94.9 73.29 93.83 73.01 92.76 72.8 91.69 72.64 90.63 72.53 89.56 72.45 88.49 72.38 87.42 72.34 86.36 72.31 85.29 72.28 84.22 72.27 83.16 72.25 82.09 72.24 81.02 72.23 79.95 72.23 78.89 72.22 77.82 72.22 76.75 72.21 75.68 72.21 74.62 72.21 73.55 72.21 72.48 72.22 71.41 72.22 70.35 72.22 69.28 72.23 68.21 72.24 67.14 72.25 66.08 72.27 65.01 72.28 63.94 72.31 62.88 72.34 61.81 72.38 60.74 72.44 59.67 72.53 58.61 72.64 57.54 72.8 56.47 73.01 55.41 73.29 54.34 73.65 53.27 74.12 52.2 74.72 51.14 75.45 50.07 76.33 49 77.35 47.93 78.53 46.87 79.83 45.8 81.23 44.73 82.68 43.66 84.13 42.6 85.51 41.53 86.76 40.46 87.81 39.4 88.59 38.33 89.06 37.26 89.19 36.19 89.15 36 54.05 36"/><polygon class="cls-9" points="24.69 112.6 23.7 112.6 16.33 112.24 5.67 111.87 5.34 111.51 6.99 111.15 8.51 110.78 9.89 110.42 11.15 110.05 12.32 109.69 13.39 109.33 14.4 108.96 15.24 108.6 16.04 108.23 16.83 107.87 17.52 107.51 18.11 107.14 18.66 106.78 19.16 106.41 19.66 106.05 20.09 105.69 20.46 105.32 20.82 104.96 21.16 104.59 21.46 104.23 21.73 103.86 21.94 103.5 22.16 103.14 22.36 102.77 22.56 102.41 22.73 102.05 22.86 101.68 22.98 101.32 23.1 100.95 23.21 100.59 23.32 100.23 23.42 99.86 23.5 99.5 23.57 99.13 23.64 98.77 23.69 98.41 23.73 98.04 23.78 97.68 23.83 97.31 23.87 96.95 23.91 96.58 23.93 96.22 23.96 95.86 23.99 95.49 24.01 95.13 24.03 94.77 24.05 94.4 24.07 94.04 24.09 93.67 24.1 93.31 24.11 92.95 24.12 92.58 24.13 92.22 24.14 91.85 24.14 91.49 24.15 91.13 24.16 90.76 24.16 90.4 24.16 90.03 24.17 89.67 24.17 89.31 24.17 88.94 24.17 88.58 24.18 88.21 24.18 87.85 24.18 87.48 24.18 87.12 24.19 86.76 24.19 86.39 24.19 86.03 24.19 85.67 24.19 85.3 24.19 84.94 24.19 84.57 24.19 84.21 24.19 83.84 24.19 83.48 24.19 83.12 24.19 82.75 24.19 82.39 24.19 82.03 24.2 81.66 24.2 81.3 24.2 80.93 24.2 80.57 24.2 80.21 24.2 79.84 24.2 79.48 24.2 79.11 24.2 78.75 24.2 78.39 24.2 78.02 24.2 77.66 24.2 77.29 24.2 76.93 24.2 76.56 24.2 76.93 24.2 77.29 24.2 77.66 24.2 78.02 24.2 78.39 24.2 78.75 24.2 79.11 24.2 79.48 24.2 79.84 24.2 80.21 24.2 80.57 24.2 80.93 24.2 81.3 24.2 81.66 24.2 82.03 24.2 82.39 24.2 82.75 24.2 83.12 24.2 83.48 24.2 83.84 24.2 84.21 24.2 84.57 24.2 84.94 24.2 85.3 24.2 85.67 24.2 86.03 24.2 86.39 24.21 86.76 24.21 87.12 24.21 87.48 24.21 87.85 24.21 88.21 24.22 88.58 24.22 88.94 24.22 89.31 24.23 89.67 24.23 90.03 24.23 90.4 24.24 90.76 24.24 91.13 24.25 91.49 24.25 91.85 24.26 92.22 24.27 92.58 24.28 92.95 24.29 93.31 24.3 93.67 24.32 94.04 24.34 94.4 24.36 94.77 24.39 95.13 24.4 95.49 24.43 95.86 24.46 96.22 24.48 96.58 24.52 96.95 24.56 97.31 24.61 97.68 24.66 98.04 24.7 98.41 24.75 98.77 24.82 99.13 24.89 99.5 24.97 99.86 25.07 100.23 25.18 100.59 25.29 100.95 25.42 101.32 25.54 101.68 25.66 102.05 25.83 102.41 26.04 102.77 26.23 103.14 26.45 103.5 26.66 103.86 26.93 104.23 27.23 104.59 27.57 104.96 27.93 105.32 28.3 105.69 28.73 106.05 29.23 106.41 29.74 106.78 30.28 107.14 30.88 107.51 31.57 107.87 32.35 108.23 33.15 108.6 33.99 108.96 35 109.33 36.08 109.69 37.24 110.05 38.5 110.42 39.89 110.78 41.41 111.15 43.05 111.51 42.73 111.87 32.07 112.24 24.69 112.6"/><polygon class="cls-10" points="24.69 112.6 23.7 112.6 16.33 112.24 5.67 111.87 5.34 111.51 6.99 111.15 8.51 110.78 9.89 110.42 11.15 110.05 12.32 109.69 13.39 109.33 14.4 108.96 15.24 108.6 16.04 108.23 16.83 107.87 17.52 107.51 18.11 107.14 18.66 106.78 19.16 106.41 19.66 106.05 20.09 105.69 20.46 105.32 20.82 104.96 21.16 104.59 21.46 104.23 21.73 103.86 21.94 103.5 22.16 103.14 22.36 102.77 22.56 102.41 22.73 102.05 22.86 101.68 22.98 101.32 23.1 100.95 23.21 100.59 23.32 100.23 23.42 99.86 23.5 99.5 23.57 99.13 23.64 98.77 23.69 98.41 23.73 98.04 23.78 97.68 23.83 97.31 23.87 96.95 23.91 96.58 23.93 96.22 23.96 95.86 23.99 95.49 24.01 95.13 24.03 94.77 24.05 94.4 24.07 94.04 24.09 93.67 24.1 93.31 24.11 92.95 24.12 92.58 24.13 92.22 24.14 91.85 24.14 91.49 24.15 91.13 24.16 90.76 24.16 90.4 24.16 90.03 24.17 89.67 24.17 89.31 24.17 88.94 24.17 88.58 24.18 88.21 24.18 87.85 24.18 87.48 24.18 87.12 24.19 86.76 24.19 86.39 24.19 86.03 24.19 85.67 24.19 85.3 24.19 84.94 24.19 84.57 24.19 84.21 24.19 83.84 24.19 83.48 24.19 83.12 24.19 82.75 24.19 82.39 24.19 82.03 24.2 81.66 24.2 81.3 24.2 80.93 24.2 80.57 24.2 80.21 24.2 79.84 24.2 79.48 24.2 79.11 24.2 78.75 24.2 78.39 24.2 78.02 24.2 77.66 24.2 77.29 24.2 76.93 24.2 76.56 24.2 76.93 24.2 77.29 24.2 77.66 24.2 78.02 24.2 78.39 24.2 78.75 24.2 79.11 24.2 79.48 24.2 79.84 24.2 80.21 24.2 80.57 24.2 80.93 24.2 81.3 24.2 81.66 24.2 82.03 24.2 82.39 24.2 82.75 24.2 83.12 24.2 83.48 24.2 83.84 24.2 84.21 24.2 84.57 24.2 84.94 24.2 85.3 24.2 85.67 24.2 86.03 24.2 86.39 24.21 86.76 24.21 87.12 24.21 87.48 24.21 87.85 24.21 88.21 24.22 88.58 24.22 88.94 24.22 89.31 24.23 89.67 24.23 90.03 24.23 90.4 24.24 90.76 24.24 91.13 24.25 91.49 24.25 91.85 24.26 92.22 24.27 92.58 24.28 92.95 24.29 93.31 24.3 93.67 24.32 94.04 24.34 94.4 24.36 94.77 24.39 95.13 24.4 95.49 24.43 95.86 24.46 96.22 24.48 96.58 24.52 96.95 24.56 97.31 24.61 97.68 24.66 98.04 24.7 98.41 24.75 98.77 24.82 99.13 24.89 99.5 24.97 99.86 25.07 100.23 25.18 100.59 25.29 100.95 25.42 101.32 25.54 101.68 25.66 102.05 25.83 102.41 26.04 102.77 26.23 103.14 26.45 103.5 26.66 103.86 26.93 104.23 27.23 104.59 27.57 104.96 27.93 105.32 28.3 105.69 28.73 106.05 29.23 106.41 29.74 106.78 30.28 107.14 30.88 107.51 31.57 107.87 32.35 108.23 33.15 108.6 33.99 108.96 35 109.33 36.08 109.69 37.24 110.05 38.5 110.42 39.89 110.78 41.41 111.15 43.05 111.51 42.73 111.87 32.07 112.24 24.69 112.6"/><polygon class="cls-11" points="118.48 74.25 118.48 74.25 118.48 73.85 118.48 73.46 118.48 73.07 118.48 72.68 118.48 72.29 118.48 71.9 118.48 71.51 118.48 71.11 118.48 70.72 118.48 70.33 118.48 69.94 118.48 69.55 118.48 69.16 118.48 68.77 118.48 68.37 118.48 67.98 118.48 67.59 118.48 67.2 118.48 66.81 118.48 66.42 118.48 66.02 118.48 65.63 118.48 65.24 118.48 64.85 118.48 64.46 118.48 64.07 118.48 63.67 118.48 63.28 118.48 62.89 118.47 62.5 118.47 62.11 118.47 61.72 118.47 61.33 118.47 60.94 118.47 60.54 118.47 60.15 118.46 59.76 118.46 59.37 118.45 58.98 118.45 58.59 118.45 58.2 118.44 57.8 118.44 57.41 118.44 57.02 118.43 56.63 118.42 56.24 118.41 55.85 118.4 55.45 118.39 55.06 118.38 54.67 118.36 54.28 118.35 53.89 118.33 53.5 118.3 53.1 118.28 52.71 118.25 52.32 118.22 51.93 118.19 51.54 118.16 51.15 118.12 50.76 118.08 50.37 118.03 49.97 117.95 49.58 117.89 49.19 117.82 48.8 117.73 48.41 117.64 48.02 117.55 47.63 117.44 47.23 117.32 46.84 117.17 46.45 117.02 46.06 116.84 45.67 116.7 45.28 116.44 44.88 116.21 44.49 115.93 44.1 115.63 43.71 115.3 43.32 114.95 42.93 114.57 42.53 114.14 42.14 113.61 41.75 113.09 41.36 112.46 40.97 111.85 40.58 111.17 40.19 110.32 39.8 109.45 39.4 108.48 39.01 107.42 38.62 106.3 38.23 104.99 37.84 103.53 37.45 101.93 37.06 100.24 36.66 99.62 36.27 109.71 35.88 117.99 35.49 118.97 35.49 127.25 35.88 137.34 36.27 136.72 36.66 135.03 37.06 133.43 37.45 131.97 37.84 130.66 38.23 129.55 38.62 128.48 39.01 127.51 39.4 126.64 39.8 125.8 40.19 125.11 40.58 124.5 40.97 123.87 41.36 123.35 41.75 122.82 42.14 122.39 42.53 122.02 42.93 121.66 43.32 121.33 43.71 121.03 44.1 120.75 44.49 120.52 44.88 120.26 45.28 120.11 45.67 119.94 46.06 119.79 46.45 119.64 46.84 119.52 47.23 119.41 47.63 119.32 48.02 119.23 48.41 119.14 48.8 119.07 49.19 119.01 49.58 118.93 49.97 118.88 50.37 118.84 50.76 118.81 51.15 118.77 51.54 118.74 51.93 118.7 52.32 118.68 52.71 118.66 53.1 118.63 53.5 118.61 53.89 118.6 54.28 118.58 54.67 118.57 55.06 118.56 55.45 118.55 55.85 118.54 56.24 118.53 56.63 118.53 57.02 118.52 57.41 118.52 57.8 118.51 58.2 118.51 58.59 118.5 58.98 118.5 59.37 118.5 59.76 118.5 60.15 118.49 60.54 118.49 60.94 118.49 61.33 118.49 61.72 118.49 62.11 118.49 62.5 118.48 62.89 118.48 63.28 118.48 63.67 118.48 64.07 118.48 64.46 118.48 64.85 118.48 65.24 118.48 65.63 118.48 66.02 118.48 66.42 118.48 66.81 118.48 67.2 118.48 67.59 118.48 67.98 118.48 68.37 118.48 68.77 118.48 69.16 118.48 69.55 118.48 69.94 118.48 70.33 118.48 70.72 118.48 71.11 118.48 71.51 118.48 71.9 118.48 72.29 118.48 72.68 118.48 73.07 118.48 73.46 118.48 73.85 118.48 74.25"/><polygon class="cls-10" points="118.48 74.25 118.48 74.25 118.48 73.85 118.48 73.46 118.48 73.07 118.48 72.68 118.48 72.29 118.48 71.9 118.48 71.51 118.48 71.11 118.48 70.72 118.48 70.33 118.48 69.94 118.48 69.55 118.48 69.16 118.48 68.77 118.48 68.37 118.48 67.98 118.48 67.59 118.48 67.2 118.48 66.81 118.48 66.42 118.48 66.02 118.48 65.63 118.48 65.24 118.48 64.85 118.48 64.46 118.48 64.07 118.48 63.67 118.48 63.28 118.48 62.89 118.47 62.5 118.47 62.11 118.47 61.72 118.47 61.33 118.47 60.94 118.47 60.54 118.47 60.15 118.46 59.76 118.46 59.37 118.45 58.98 118.45 58.59 118.45 58.2 118.44 57.8 118.44 57.41 118.44 57.02 118.43 56.63 118.42 56.24 118.41 55.85 118.4 55.45 118.39 55.06 118.38 54.67 118.36 54.28 118.35 53.89 118.33 53.5 118.3 53.1 118.28 52.71 118.25 52.32 118.22 51.93 118.19 51.54 118.16 51.15 118.12 50.76 118.08 50.37 118.03 49.97 117.95 49.58 117.89 49.19 117.82 48.8 117.73 48.41 117.64 48.02 117.55 47.63 117.44 47.23 117.32 46.84 117.17 46.45 117.02 46.06 116.84 45.67 116.7 45.28 116.44 44.88 116.21 44.49 115.93 44.1 115.63 43.71 115.3 43.32 114.95 42.93 114.57 42.53 114.14 42.14 113.61 41.75 113.09 41.36 112.46 40.97 111.85 40.58 111.17 40.19 110.32 39.8 109.45 39.4 108.48 39.01 107.42 38.62 106.3 38.23 104.99 37.84 103.53 37.45 101.93 37.06 100.24 36.66 99.62 36.27 109.71 35.88 117.99 35.49 118.97 35.49 127.25 35.88 137.34 36.27 136.72 36.66 135.03 37.06 133.43 37.45 131.97 37.84 130.66 38.23 129.55 38.62 128.48 39.01 127.51 39.4 126.64 39.8 125.8 40.19 125.11 40.58 124.5 40.97 123.87 41.36 123.35 41.75 122.82 42.14 122.39 42.53 122.02 42.93 121.66 43.32 121.33 43.71 121.03 44.1 120.75 44.49 120.52 44.88 120.26 45.28 120.11 45.67 119.94 46.06 119.79 46.45 119.64 46.84 119.52 47.23 119.41 47.63 119.32 48.02 119.23 48.41 119.14 48.8 119.07 49.19 119.01 49.58 118.93 49.97 118.88 50.37 118.84 50.76 118.81 51.15 118.77 51.54 118.74 51.93 118.7 52.32 118.68 52.71 118.66 53.1 118.63 53.5 118.61 53.89 118.6 54.28 118.58 54.67 118.57 55.06 118.56 55.45 118.55 55.85 118.54 56.24 118.53 56.63 118.53 57.02 118.52 57.41 118.52 57.8 118.51 58.2 118.51 58.59 118.5 58.98 118.5 59.37 118.5 59.76 118.5 60.15 118.49 60.54 118.49 60.94 118.49 61.33 118.49 61.72 118.49 62.11 118.49 62.5 118.48 62.89 118.48 63.28 118.48 63.67 118.48 64.07 118.48 64.46 118.48 64.85 118.48 65.24 118.48 65.63 118.48 66.02 118.48 66.42 118.48 66.81 118.48 67.2 118.48 67.59 118.48 67.98 118.48 68.37 118.48 68.77 118.48 69.16 118.48 69.55 118.48 69.94 118.48 70.33 118.48 70.72 118.48 71.11 118.48 71.51 118.48 71.9 118.48 72.29 118.48 72.68 118.48 73.07 118.48 73.46 118.48 73.85 118.48 74.25"/><polygon class="cls-12" points="165.62 100.64 165.62 100.64 165.62 100.11 165.62 99.57 165.62 99.04 165.62 98.5 165.62 97.97 165.62 97.43 165.62 96.89 165.62 96.36 165.62 95.83 165.61 95.29 165.6 94.75 165.58 94.22 165.57 93.68 165.54 93.15 165.51 92.61 165.46 92.08 165.41 91.54 165.34 91 165.24 90.47 165.12 89.94 164.98 89.4 164.79 88.86 164.54 88.33 164.24 87.79 163.93 87.26 163.6 86.72 163.16 86.19 162.68 85.65 162.11 85.11 161.45 84.58 160.7 84.05 159.91 83.51 159.09 82.97 158.25 82.44 157.38 81.9 156.42 81.37 155.41 80.83 154.43 80.3 153.43 79.76 152.38 79.22 151.49 78.69 150.62 78.15 149.8 77.62 149 77.08 148.27 76.55 147.76 76.01 147.34 75.48 146.94 74.94 146.76 74.41 146.83 73.87 147.02 73.34 147.28 72.8 147.65 72.26 148.19 71.73 148.85 71.19 149.48 70.66 150.26 70.12 151.24 69.59 152.19 69.05 153.17 68.52 154.17 67.98 155.16 67.44 156.1 66.91 157.02 66.37 158.01 65.84 158.94 65.3 159.74 64.77 160.51 64.23 161.24 63.7 161.91 63.16 162.47 62.62 162.94 62.09 163.43 61.55 163.87 61.02 164.19 60.48 164.47 59.95 164.71 59.41 164.9 58.88 165.07 58.34 165.21 57.8 165.3 57.27 165.37 56.73 165.44 56.2 165.5 55.66 165.54 55.13 165.56 54.59 165.58 54.06 165.59 53.52 165.6 52.99 165.61 52.45 165.62 51.91 165.62 51.38 165.62 50.84 165.62 50.31 165.62 49.77 165.62 49.24 165.62 48.7 165.62 48.17 165.62 47.63 165.62 48.17 165.62 48.7 165.62 49.24 165.62 49.77 165.62 50.31 165.63 50.84 165.63 51.38 165.63 51.91 165.63 52.45 165.64 52.99 165.65 53.52 165.66 54.06 165.68 54.59 165.71 55.13 165.74 55.66 165.8 56.2 165.87 56.73 165.95 57.27 166.04 57.8 166.17 58.34 166.34 58.88 166.53 59.41 166.78 59.95 167.06 60.48 167.38 61.02 167.81 61.55 168.31 62.09 168.78 62.62 169.33 63.16 170 63.7 170.74 64.23 171.51 64.77 172.31 65.3 173.24 65.84 174.22 66.37 175.14 66.91 176.09 67.44 177.07 67.98 178.07 68.52 179.06 69.05 180 69.59 180.98 70.12 181.77 70.66 182.4 71.19 183.06 71.73 183.59 72.26 183.97 72.8 184.23 73.34 184.42 73.87 184.48 74.41 184.31 74.94 183.91 75.48 183.49 76.01 182.97 76.55 182.25 77.08 181.44 77.62 180.63 78.15 179.75 78.69 178.86 79.22 177.81 79.76 176.81 80.3 175.83 80.83 174.82 81.37 173.87 81.9 172.99 82.44 172.15 82.97 171.33 83.51 170.54 84.05 169.79 84.58 169.13 85.11 168.57 85.65 168.08 86.19 167.65 86.72 167.32 87.26 167 87.79 166.71 88.33 166.46 88.86 166.27 89.4 166.12 89.94 166.01 90.47 165.91 91 165.84 91.54 165.78 92.08 165.74 92.61 165.7 93.15 165.68 93.68 165.66 94.22 165.65 94.75 165.64 95.29 165.63 95.83 165.63 96.36 165.63 96.89 165.63 97.43 165.62 97.97 165.62 98.5 165.62 99.04 165.62 99.57 165.62 100.11 165.62 100.64"/><polygon class="cls-10" points="165.62 100.64 165.62 100.64 165.62 100.11 165.62 99.57 165.62 99.04 165.62 98.5 165.62 97.97 165.62 97.43 165.62 96.89 165.62 96.36 165.62 95.83 165.61 95.29 165.6 94.75 165.58 94.22 165.57 93.68 165.54 93.15 165.51 92.61 165.46 92.08 165.41 91.54 165.34 91 165.24 90.47 165.12 89.94 164.98 89.4 164.79 88.86 164.54 88.33 164.24 87.79 163.93 87.26 163.6 86.72 163.16 86.19 162.68 85.65 162.11 85.11 161.45 84.58 160.7 84.05 159.91 83.51 159.09 82.97 158.25 82.44 157.38 81.9 156.42 81.37 155.41 80.83 154.43 80.3 153.43 79.76 152.38 79.22 151.49 78.69 150.62 78.15 149.8 77.62 149 77.08 148.27 76.55 147.76 76.01 147.34 75.48 146.94 74.94 146.76 74.41 146.83 73.87 147.02 73.34 147.28 72.8 147.65 72.26 148.19 71.73 148.85 71.19 149.48 70.66 150.26 70.12 151.24 69.59 152.19 69.05 153.17 68.52 154.17 67.98 155.16 67.44 156.1 66.91 157.02 66.37 158.01 65.84 158.94 65.3 159.74 64.77 160.51 64.23 161.24 63.7 161.91 63.16 162.47 62.62 162.94 62.09 163.43 61.55 163.87 61.02 164.19 60.48 164.47 59.95 164.71 59.41 164.9 58.88 165.07 58.34 165.21 57.8 165.3 57.27 165.37 56.73 165.44 56.2 165.5 55.66 165.54 55.13 165.56 54.59 165.58 54.06 165.59 53.52 165.6 52.99 165.61 52.45 165.62 51.91 165.62 51.38 165.62 50.84 165.62 50.31 165.62 49.77 165.62 49.24 165.62 48.7 165.62 48.17 165.62 47.63 165.62 48.17 165.62 48.7 165.62 49.24 165.62 49.77 165.62 50.31 165.63 50.84 165.63 51.38 165.63 51.91 165.63 52.45 165.64 52.99 165.65 53.52 165.66 54.06 165.68 54.59 165.71 55.13 165.74 55.66 165.8 56.2 165.87 56.73 165.95 57.27 166.04 57.8 166.17 58.34 166.34 58.88 166.53 59.41 166.78 59.95 167.06 60.48 167.38 61.02 167.81 61.55 168.31 62.09 168.78 62.62 169.33 63.16 170 63.7 170.74 64.23 171.51 64.77 172.31 65.3 173.24 65.84 174.22 66.37 175.14 66.91 176.09 67.44 177.07 67.98 178.07 68.52 179.06 69.05 180 69.59 180.98 70.12 181.77 70.66 182.4 71.19 183.06 71.73 183.59 72.26 183.97 72.8 184.23 73.34 184.42 73.87 184.48 74.41 184.31 74.94 183.91 75.48 183.49 76.01 182.97 76.55 182.25 77.08 181.44 77.62 180.63 78.15 179.75 78.69 178.86 79.22 177.81 79.76 176.81 80.3 175.83 80.83 174.82 81.37 173.87 81.9 172.99 82.44 172.15 82.97 171.33 83.51 170.54 84.05 169.79 84.58 169.13 85.11 168.57 85.65 168.08 86.19 167.65 86.72 167.32 87.26 167 87.79 166.71 88.33 166.46 88.86 166.27 89.4 166.12 89.94 166.01 90.47 165.91 91 165.84 91.54 165.78 92.08 165.74 92.61 165.7 93.15 165.68 93.68 165.66 94.22 165.65 94.75 165.64 95.29 165.63 95.83 165.63 96.36 165.63 96.89 165.63 97.43 165.62 97.97 165.62 98.5 165.62 99.04 165.62 99.57 165.62 100.11 165.62 100.64"/><polygon class="cls-13" points="213.2 114.94 212.33 114.94 211.25 114.12 208.81 113.29 204.93 112.46 200.55 111.64 197.08 110.81 195.15 109.98 194.4 109.16 194.18 108.33 194.09 107.51 194.05 106.68 194.06 105.85 194.1 105.03 194.13 104.2 194.1 103.38 194.04 102.55 194.01 101.72 194.02 100.9 194.06 100.07 194.1 99.24 194.13 98.42 194.14 97.59 194.11 96.77 194.06 95.94 194.01 95.11 193.97 94.29 193.96 93.46 193.94 92.64 193.92 91.81 193.91 90.98 193.92 90.16 193.95 89.33 193.96 88.5 193.94 87.68 193.94 86.85 193.97 86.03 194.01 85.2 194.03 84.37 194.02 83.55 193.99 82.72 193.97 81.89 193.95 81.07 193.95 80.24 193.94 79.42 193.94 78.59 193.93 77.76 193.94 76.94 193.95 76.11 193.97 75.28 193.98 74.46 194 73.63 194 72.81 194 71.98 194 71.15 194.03 70.33 194.07 69.5 194.09 68.67 194.1 67.85 194.1 67.02 194.09 66.2 194.07 65.37 194.04 64.54 194.02 63.72 194.03 62.89 194.04 62.07 194.06 61.24 194.07 60.41 194.08 59.59 194.09 58.76 194.11 57.94 194.11 57.11 194.08 56.28 194.06 55.46 194.06 54.63 194.09 53.8 194.15 52.98 194.18 52.15 194.17 51.33 194.13 50.5 194.07 49.67 194.03 48.85 194.03 48.02 194.06 47.2 194.1 46.37 194.13 45.54 194.11 44.72 194.06 43.89 194.03 43.06 194.02 42.24 194.03 41.41 194.01 40.59 193.99 39.76 194.15 38.93 194.94 38.11 196.98 37.28 200.55 36.45 204.96 35.63 208.84 34.8 211.26 33.98 212.34 33.15 213.19 33.15 214.27 33.98 216.69 34.8 220.57 35.63 224.98 36.45 228.55 37.28 230.59 38.11 231.38 38.93 231.54 39.76 231.52 40.59 231.5 41.41 231.51 42.24 231.5 43.06 231.47 43.89 231.42 44.72 231.4 45.54 231.43 46.37 231.47 47.2 231.5 48.02 231.5 48.85 231.46 49.67 231.4 50.5 231.36 51.33 231.35 52.15 231.38 52.98 231.43 53.8 231.47 54.63 231.47 55.46 231.45 56.28 231.42 57.11 231.42 57.94 231.43 58.76 231.45 59.59 231.46 60.41 231.47 61.24 231.48 62.07 231.5 62.89 231.51 63.72 231.49 64.54 231.46 65.37 231.43 66.2 231.43 67.02 231.43 67.85 231.44 68.67 231.46 69.5 231.5 70.33 231.52 71.15 231.53 71.98 231.53 72.81 231.53 73.63 231.55 74.46 231.56 75.28 231.57 76.11 231.59 76.94 231.6 77.76 231.59 78.59 231.59 79.42 231.58 80.24 231.57 81.07 231.56 81.89 231.54 82.72 231.51 83.55 231.5 84.37 231.51 85.2 231.56 86.03 231.59 86.85 231.58 87.68 231.57 88.5 231.58 89.33 231.61 90.16 231.62 90.98 231.61 91.81 231.59 92.64 231.57 93.46 231.56 94.29 231.52 95.11 231.47 95.94 231.42 96.77 231.39 97.59 231.4 98.42 231.42 99.24 231.47 100.07 231.51 100.9 231.52 101.72 231.49 102.55 231.43 103.38 231.4 104.2 231.42 105.03 231.47 105.85 231.47 106.68 231.44 107.51 231.35 108.33 231.13 109.16 230.38 109.98 228.45 110.81 224.98 111.64 220.6 112.46 216.72 113.29 214.28 114.12 213.2 114.94"/><polygon class="cls-10" points="213.2 114.94 212.33 114.94 211.25 114.12 208.81 113.29 204.93 112.46 200.55 111.64 197.08 110.81 195.15 109.98 194.4 109.16 194.18 108.33 194.09 107.51 194.05 106.68 194.06 105.85 194.1 105.03 194.13 104.2 194.1 103.38 194.04 102.55 194.01 101.72 194.02 100.9 194.06 100.07 194.1 99.24 194.13 98.42 194.14 97.59 194.11 96.77 194.06 95.94 194.01 95.11 193.97 94.29 193.96 93.46 193.94 92.64 193.92 91.81 193.91 90.98 193.92 90.16 193.95 89.33 193.96 88.5 193.94 87.68 193.94 86.85 193.97 86.03 194.01 85.2 194.03 84.37 194.02 83.55 193.99 82.72 193.97 81.89 193.95 81.07 193.95 80.24 193.94 79.42 193.94 78.59 193.93 77.76 193.94 76.94 193.95 76.11 193.97 75.28 193.98 74.46 194 73.63 194 72.81 194 71.98 194 71.15 194.03 70.33 194.07 69.5 194.09 68.67 194.1 67.85 194.1 67.02 194.09 66.2 194.07 65.37 194.04 64.54 194.02 63.72 194.03 62.89 194.04 62.07 194.06 61.24 194.07 60.41 194.08 59.59 194.09 58.76 194.11 57.94 194.11 57.11 194.08 56.28 194.06 55.46 194.06 54.63 194.09 53.8 194.15 52.98 194.18 52.15 194.17 51.33 194.13 50.5 194.07 49.67 194.03 48.85 194.03 48.02 194.06 47.2 194.1 46.37 194.13 45.54 194.11 44.72 194.06 43.89 194.03 43.06 194.02 42.24 194.03 41.41 194.01 40.59 193.99 39.76 194.15 38.93 194.94 38.11 196.98 37.28 200.55 36.45 204.96 35.63 208.84 34.8 211.26 33.98 212.34 33.15 213.19 33.15 214.27 33.98 216.69 34.8 220.57 35.63 224.98 36.45 228.55 37.28 230.59 38.11 231.38 38.93 231.54 39.76 231.52 40.59 231.5 41.41 231.51 42.24 231.5 43.06 231.47 43.89 231.42 44.72 231.4 45.54 231.43 46.37 231.47 47.2 231.5 48.02 231.5 48.85 231.46 49.67 231.4 50.5 231.36 51.33 231.35 52.15 231.38 52.98 231.43 53.8 231.47 54.63 231.47 55.46 231.45 56.28 231.42 57.11 231.42 57.94 231.43 58.76 231.45 59.59 231.46 60.41 231.47 61.24 231.48 62.07 231.5 62.89 231.51 63.72 231.49 64.54 231.46 65.37 231.43 66.2 231.43 67.02 231.43 67.85 231.44 68.67 231.46 69.5 231.5 70.33 231.52 71.15 231.53 71.98 231.53 72.81 231.53 73.63 231.55 74.46 231.56 75.28 231.57 76.11 231.59 76.94 231.6 77.76 231.59 78.59 231.59 79.42 231.58 80.24 231.57 81.07 231.56 81.89 231.54 82.72 231.51 83.55 231.5 84.37 231.51 85.2 231.56 86.03 231.59 86.85 231.58 87.68 231.57 88.5 231.58 89.33 231.61 90.16 231.62 90.98 231.61 91.81 231.59 92.64 231.57 93.46 231.56 94.29 231.52 95.11 231.47 95.94 231.42 96.77 231.39 97.59 231.4 98.42 231.42 99.24 231.47 100.07 231.51 100.9 231.52 101.72 231.49 102.55 231.43 103.38 231.4 104.2 231.42 105.03 231.47 105.85 231.47 106.68 231.44 107.51 231.35 108.33 231.13 109.16 230.38 109.98 228.45 110.81 224.98 111.64 220.6 112.46 216.72 113.29 214.28 114.12 213.2 114.94"/><line class="cls-14" x1="189.19" y1="112.16" x2="189.19" y2="35.93"/><g class="cls-15"><polygon class="cls-16" points="73.86 126.91 69.34 126.91 68.61 125.85 67.72 124.78 66.67 123.71 65.46 122.64 64.11 121.58 62.66 120.51 61.15 119.44 59.63 118.38 58.17 117.31 56.84 116.24 55.7 115.17 54.83 114.11 54.27 113.04 54.04 111.97 54.17 110.91 54.64 109.84 55.42 108.77 56.47 107.7 57.71 106.64 59.09 105.57 60.54 104.5 61.99 103.43 63.38 102.37 64.68 101.3 65.86 100.23 66.88 99.16 67.76 98.1 68.49 97.03 69.08 95.96 69.55 94.89 69.91 93.83 70.19 92.76 70.4 91.69 70.56 90.63 70.67 89.56 70.76 88.49 70.82 87.42 70.86 86.36 70.89 85.29 70.92 84.22 70.94 83.15 70.95 82.09 70.96 81.02 70.97 79.95 70.98 78.89 70.98 77.82 70.99 76.75 70.99 75.68 70.99 74.62 70.99 73.55 70.99 72.48 70.99 71.42 70.98 70.35 70.98 69.28 70.97 68.21 70.96 67.14 70.95 66.08 70.94 65.01 70.92 63.94 70.89 62.88 70.86 61.81 70.82 60.74 70.76 59.67 70.67 58.61 70.56 57.54 70.4 56.47 70.19 55.41 69.91 54.34 69.55 53.27 69.08 52.2 68.48 51.13 67.75 50.07 66.88 49 65.85 47.93 64.67 46.87 63.37 45.8 61.97 44.73 60.52 43.66 59.07 42.6 57.69 41.53 56.44 40.46 55.4 39.4 54.61 38.33 54.14 37.26 54.01 36.19 54.23 35.13 54.8 34.06 55.68 32.99 56.81 31.92 58.15 30.86 59.61 29.79 61.13 28.72 62.65 27.65 64.1 26.59 65.45 25.52 66.66 24.45 67.71 23.39 68.6 22.32 69.34 21.25 73.86 21.25 74.6 22.32 75.49 23.39 76.54 24.45 77.75 25.52 79.1 26.59 80.55 27.65 82.07 28.72 83.59 29.79 85.06 30.86 86.39 31.92 87.53 32.99 88.4 34.06 88.97 35.13 89.19 36.19 89.06 37.26 88.59 38.33 87.81 39.4 86.76 40.46 85.51 41.53 84.13 42.6 82.68 43.66 81.23 44.73 79.83 45.8 78.53 46.87 77.36 47.93 76.32 49 75.45 50.07 74.72 51.13 74.13 52.2 73.65 53.27 73.29 54.34 73.01 55.41 72.8 56.47 72.64 57.54 72.53 58.61 72.44 59.67 72.38 60.74 72.34 61.81 72.31 62.88 72.28 63.94 72.27 65.01 72.25 66.08 72.24 67.14 72.23 68.21 72.23 69.28 72.22 70.35 72.22 71.42 72.22 72.48 72.21 73.55 72.21 74.62 72.22 75.68 72.22 76.75 72.22 77.82 72.23 78.89 72.23 79.95 72.24 81.02 72.25 82.09 72.27 83.15 72.28 84.22 72.31 85.29 72.34 86.36 72.39 87.42 72.45 88.49 72.53 89.56 72.64 90.63 72.8 91.69 73.01 92.76 73.29 93.83 73.65 94.89 74.12 95.96 74.72 97.03 75.44 98.1 76.32 99.16 77.35 100.23 78.52 101.3 79.82 102.37 81.21 103.43 82.66 104.5 84.11 105.57 85.49 106.64 86.73 107.7 87.78 108.77 88.56 109.84 89.03 110.91 89.16 111.97 88.94 113.04 88.37 114.11 87.5 115.17 86.36 116.24 85.03 117.31 83.57 118.38 82.05 119.44 80.54 120.51 79.09 121.58 77.74 122.64 76.54 123.71 75.48 124.78 74.59 125.85 73.86 126.91"/></g></g></g><g id="ExhZk6.tif"><path d="M112.18,73.14c0-5-.08-10.05,0-15.08.06-3-1.26-4.25-4.22-4.15a44.36,44.36,0,0,1-7.53-.17c-3.69-.51-6.29-2.49-6.26-6.58s2.78-5.9,6.47-6.32c2.49-.28,5-.11,7.53-.2,1.7-.06,3.51-.08,3.85-2.33.28-1.86.3-3.68-1.57-4.92a30.2,30.2,0,0,1-4-3c-7.49-7-7.71-17.8-.59-25.08a17.59,17.59,0,0,1,25.25,0,17.11,17.11,0,0,1-.62,25.08,30.58,30.58,0,0,1-4,3c-1.88,1.25-1.83,3.08-1.55,4.93.34,2.25,2.16,2.22,3.85,2.32,3,.18,6-.32,9,.71,3.16,1.11,5.28,3.09,5,6.65-.35,3.72-2.71,5.58-6.36,5.88l-.5,0c-11.09.78-11.09.78-11.09,11.86,0,7.54.13,15.08,0,22.62-.08,4.21,1.65,4.92,5.26,3.57,6.33-2.36,11.24-6.55,15.46-11.66.76-.92,2.24-2.53.14-3.19-3.88-1.23-2-3-.75-4.71,4.12-5.5,8.36-10.9,12.43-16.43,2.49-3.38,4.42-3,6.2.55q4.09,8.07,8.21,16.12c1.14,2.23,1.07,4.36-1.92,4.06-5.66-.58-7.34,3.13-9.35,7.2-15.19,30.84-54,31.75-72.71,14.58A49.86,49.86,0,0,1,75.13,81.08c-1.37-3.23-3.05-5.39-7-5-3.5.36-4-1.36-2.51-4.27q4.3-8.24,8.41-16.58c1.27-2.6,2.53-3.43,4.59-.72,4.66,6.14,9.4,12.21,14,18.36.73,1,2,2.75-.35,3-4.53.55-2.27,2.55-1,4.11,4,5,8.78,9.22,14.88,11.62,4.94,1.94,5.94,1.29,6-3.92C112.22,82.86,112.17,78,112.18,73.14ZM126,16.91a7.51,7.51,0,0,0-15-.38,7.5,7.5,0,1,0,15,.38Z"/></g><text class="cls-17" transform="translate(70.22 135.8)">Anchor</text></svg>